<svg xmlns="http://www.w3.org/2000/svg" width="16" height="16" viewBox="0 0 16 16" aria-hidden="true">
  <path fill="#5f6f7a" d="M3 1h7l3 3v11H3z"/>
  <path fill="#ffffff" d="M10 1v4h3z"/>
  <path fill="#1f7a3f" d="M1 8h12v5H1z"/>
  <path fill="#ffffff" d="m4 12 1-1.5L4.1 9h1l.4.8.5-.8h1l-.9 1.5 1 1.5h-1l-.6-.9-.6.9zm3.4 0V9h.9v2.3h1.4v.7zm3.5.1c-.5 0-1-.2-1.4-.5l.5-.6c.3.2.6.4.9.4.3 0 .4-.1.4-.2 0-.2-.2-.2-.6-.4-.5-.2-1-.4-1-1 0-.6.5-.9 1.2-.9.4 0 .9.2 1.2.5l-.4.5c-.3-.2-.5-.3-.8-.3-.2 0-.3.1-.3.2 0 .2.2.2.6.4.5.2 1 .4 1 1 0 .5-.4.9-1.3.9z"/>
</svg>
