<svg width="14" height="14" version="1.2" xmlns="http://www.w3.org/2000/svg"><path d="M7 1.75a5.25 5.25 0 100 10.5 5.25 5.25 0 000-10.5zm1.907 1.24c.043 0 .148.093.328.278.34.346.43.539.452.922.037.669-.285 1.252-1.539 2.769-.991 1.2-1.25 1.56-1.527 2.133a6.908 6.908 0 00-.288.666c-.07.224-.123.272-.123.103 0-.192.072-.8.123-1.026.056-.244.461-1.162.739-1.681.23-.432.486-.868.82-1.384.711-1.1.964-1.528 1.015-1.692.153-.492.043-.764-.01-.985-.015-.062-.015-.102.01-.102zM6.15 4.027c.065 0 .485.362.718.616.632.69.69 1.408.184 2.184-.185.283-.537.687-.605.687-.021 0-.143-.106-.266-.236-.3-.318-.469-.67-.492-1.005-.024-.324.02-.512.246-.964l.184-.369.103-.308c.085-.253-.092-.605-.072-.605zm4.296.79c.178.016.333.108.534.308.54.538.754 1.474.512 2.225-.209.65-.784 1.334-1.722 2.02-.547.399-1.467.898-1.467.8 0-.007.082-.067.175-.134.216-.155.98-.8 1.148-.964.405-.395.677-.76.677-.923 0-.08-.047-.099-.37-.194a1.185 1.185 0 01-.625-.513c-.272-.533-.113-1.46.38-2.205.174-.263.323-.369.574-.41a.723.723 0 01.184-.01zm-5.7 2.338c.255-.013.5.03.707.123.376.17.553.445.594.912.037.414-.097 2.215-.184 2.451-.03.082-.036.088-.072.02-.02-.038-.125-.332-.236-.645-.225-.635-.404-.97-.625-1.17a1.617 1.617 0 00-.862-.368c-.468-.053-.814.028-1.343.328-.37.209-.414.105-.133-.308.288-.425.868-.917 1.374-1.148.255-.117.523-.182.78-.195zm3.752.574a.983.983 0 01.39.03.588.588 0 01.359.421c.08.473-.496 1.397-1.22 1.948-.29.22-1.38.792-1.62.851l-.093.031.02-.174c.08-.597.275-1.221.534-1.712.279-.53.791-1.072 1.22-1.282a1.27 1.27 0 01.41-.113z" fill="#6c7174"/></svg>